<svg width="24" height="24" viewBox="0 0 24 24" fill="none" xmlns="http://www.w3.org/2000/svg">
<path d="M16.9748 8.13635L16.9727 8.13424C16.3525 7.51898 15.3506 7.52415 14.7368 8.14577L10.5184 12.4179L9.29153 11.1762C8.67714 10.5544 7.67401 10.5513 7.05588 11.1695C6.43738 11.788 6.43427 12.7898 7.0489 13.4121L9.74743 16.1444C9.7475 16.1445 9.74757 16.1445 9.74764 16.1446C10.1718 16.5742 10.8653 16.5742 11.2895 16.1445C11.2895 16.1445 11.2896 16.1444 11.2896 16.1444L16.9819 10.379C17.5964 9.75657 17.5933 8.75482 16.9748 8.13635ZM6.86098 4.30891C8.38213 3.2925 10.1705 2.75 12 2.75C14.4533 2.75 16.806 3.72455 18.5407 5.45926C20.2754 7.19397 21.25 9.54675 21.25 12C21.25 13.8295 20.7075 15.6179 19.6911 17.139C18.6747 18.6602 17.23 19.8458 15.5398 20.5459C13.8496 21.246 11.9897 21.4292 10.1954 21.0723C8.40109 20.7153 6.7529 19.8344 5.45927 18.5407C4.16563 17.2471 3.28465 15.5989 2.92774 13.8046C2.57083 12.0103 2.75401 10.1504 3.45412 8.46018C4.15423 6.76996 5.33982 5.32531 6.86098 4.30891Z" fill="#01A864" stroke="#01A864" stroke-width="1.5"/>
</svg>
